# xmcd
#
# Track frame offsets: 
#        150
#        29663
#        50502
#        93958
#        111673
#        147444
#        175869
#        191522
#        212917
#        232919
#        243714
#
# Disc length: 3524 seconds
#
# Revision: 0
# Processed by: cddbd v1.5.2PL0 Copyright (c) Steve Scherf et al.
# Submitted via: ExactAudioCopyFreeDBPlugin 1.0
#
DISCID=a30dc20b
DTITLE=Richie Arndt - Mississippi [CD3 - Vom Delta Bis An Die Golfküst
DTITLE=e)
DYEAR=2015
DGENRE=Blues
TTITLE0=Kapitel 1
TTITLE1=Kapitel 2
TTITLE2=Kapitel 3
TTITLE3=Kapitel 4
TTITLE4=Kapitel 5
TTITLE5=Kapitel 6
TTITLE6=Kapitel 7
TTITLE7=Kapitel 8
TTITLE8=Kapitel 9
TTITLE9=Kapitel 10
TTITLE10=Kapitel 11
EXTD=
EXTT0=
EXTT1=
EXTT2=
EXTT3=
EXTT4=
EXTT5=
EXTT6=
EXTT7=
EXTT8=
EXTT9=
EXTT10=
PLAYORDER=
